<svg preserveAspectRatio="xMidYMin slice" viewBox="0 0 88 87" fill="none" xmlns="http://www.w3.org/2000/svg">
    <path fill="#000" stroke="#000" stroke-linecap="round" stroke-linejoin="round" d="m2.448 33.896 9.033-8.212 3.272 4.384.212.803 3.052-.653-.838-16.46c-.088-1.791.503-3.053 1.518-3.776l9.041-8.213 3.273 4.385 2.364 8.838-2.505.362 12.79 14.167 16.54 2.196c5.91.785 11.812 8.61 9.995 13.241l-5.09 12.967 7.94 12.791 7.762-1.138 3.299 2.929 1.782 3.105-9.536 8.662c-.635.494-1.464.777-2.435.803-1.023.026-2.214-.23-3.537-.83l-17.678-8.07-9.694 8.812c-.724.661-1.65.97-2.673.997-3.881.105-9.245-3.908-10.894-8.98L23.61 59.054 6.55 46.687C1.178 42.788-.657 36.155 2.439 33.905l.009-.009Z"></path>
    <path fill="#F4C746" stroke="#000" stroke-linecap="round" stroke-linejoin="round" d="M30.173 1.002c2.382-.062 5.443 1.323 8.036 4.199l14.529 16.09 16.54 2.196c5.91.785 11.811 8.61 9.994 13.24l-5.09 12.968 11.062 17.81c3.131 5.037 1.64 9.236-2.24 9.342-1.024.026-2.215-.23-3.538-.83l-17.678-8.07-9.694 8.812c-.724.661-1.65.97-2.673.996-3.882.106-9.245-3.907-10.894-8.98l-5.831-17.95-17.06-12.368c-6.096-4.42-7.63-12.359-2.612-13.444l14.07-3.025-.838-16.46c-.15-2.938 1.544-4.455 3.917-4.526Z"></path>
</svg>